<mxfile host="app.diagrams.net" agent="Mozilla/5.0 (X11; Linux x86_64; rv:140.0) Gecko/20100101 Firefox/140.0" version="28.0.9">
  <diagram name="Page-1" id="nKetfk8LQpatR1D8_w2I">
    <mxGraphModel dx="543" dy="346" grid="1" gridSize="10" guides="1" tooltips="1" connect="1" arrows="1" fold="1" page="1" pageScale="1" pageWidth="850" pageHeight="1100" math="0" shadow="0">
      <root>
        <mxCell id="0" />
        <mxCell id="1" parent="0" />
        <mxCell id="Fn09qu7Amey5VSThe5sa-1" value="&lt;span style=&quot;color: light-dark(rgb(255, 31, 87), rgb(255, 31, 87));&quot;&gt;CHR0 - ISP&lt;/span&gt;" style="rounded=1;whiteSpace=wrap;html=1;fillColor=light-dark(#000000,#1A1A1A);strokeColor=light-dark(#FF1F57,#FF1F57);" vertex="1" parent="1">
          <mxGeometry x="340" y="330" width="120" height="60" as="geometry" />
        </mxCell>
        <mxCell id="Fn09qu7Amey5VSThe5sa-2" value="&lt;pre&gt;vmbr0&lt;/pre&gt;" style="rounded=1;whiteSpace=wrap;html=1;fillColor=light-dark(#000000,#1A1A1A);strokeColor=light-dark(#FFFFFF,#FF862C);" vertex="1" parent="1">
          <mxGeometry x="360" y="200" width="80" height="40" as="geometry" />
        </mxCell>
        <mxCell id="Fn09qu7Amey5VSThe5sa-3" value="" style="endArrow=none;html=1;rounded=0;entryX=0.5;entryY=1;entryDx=0;entryDy=0;exitX=0.5;exitY=0;exitDx=0;exitDy=0;strokeColor=light-dark(#FFFFFF,#FF862C);" edge="1" parent="1" source="Fn09qu7Amey5VSThe5sa-1" target="Fn09qu7Amey5VSThe5sa-2">
          <mxGeometry width="50" height="50" relative="1" as="geometry">
            <mxPoint x="410" y="320" as="sourcePoint" />
            <mxPoint x="460" y="270" as="targetPoint" />
          </mxGeometry>
        </mxCell>
        <mxCell id="Fn09qu7Amey5VSThe5sa-4" value="DHCP client" style="text;html=1;align=center;verticalAlign=middle;whiteSpace=wrap;rounded=0;" vertex="1" parent="1">
          <mxGeometry x="400" y="320" width="70" height="10" as="geometry" />
        </mxCell>
        <mxCell id="Fn09qu7Amey5VSThe5sa-5" value="&lt;pre&gt;pvid 40&lt;/pre&gt;" style="text;html=1;align=center;verticalAlign=middle;whiteSpace=wrap;rounded=0;" vertex="1" parent="1">
          <mxGeometry x="402" y="242" width="50" height="10" as="geometry" />
        </mxCell>
        <mxCell id="Fn09qu7Amey5VSThe5sa-6" value="&lt;span style=&quot;color: light-dark(rgb(0, 0, 0), rgb(255, 100, 58));&quot;&gt;CHR1 - Customer0&lt;/span&gt;" style="rounded=1;whiteSpace=wrap;html=1;strokeColor=light-dark(#000000,#FF643A);fillColor=light-dark(#000000,#1A1A1A);" vertex="1" parent="1">
          <mxGeometry x="240" y="425" width="110" height="30" as="geometry" />
        </mxCell>
        <mxCell id="Fn09qu7Amey5VSThe5sa-7" value="" style="endArrow=none;html=1;rounded=0;exitX=0.75;exitY=0;exitDx=0;exitDy=0;entryX=0.25;entryY=1;entryDx=0;entryDy=0;strokeColor=light-dark(#000000,#FF643A);" edge="1" parent="1" source="Fn09qu7Amey5VSThe5sa-6" target="Fn09qu7Amey5VSThe5sa-1">
          <mxGeometry width="50" height="50" relative="1" as="geometry">
            <mxPoint x="370" y="460" as="sourcePoint" />
            <mxPoint x="420" y="410" as="targetPoint" />
          </mxGeometry>
        </mxCell>
        <mxCell id="Fn09qu7Amey5VSThe5sa-8" value="&lt;span style=&quot;color: light-dark(rgb(180, 101, 4), rgb(255, 65, 73));&quot;&gt;CHR2 - Customer1&lt;/span&gt;" style="rounded=1;whiteSpace=wrap;html=1;strokeColor=light-dark(#B46504,#FF4149);fillColor=light-dark(#000000,#1A1A1A);" vertex="1" parent="1">
          <mxGeometry x="452" y="425" width="110" height="30" as="geometry" />
        </mxCell>
        <mxCell id="Fn09qu7Amey5VSThe5sa-9" value="" style="endArrow=none;html=1;rounded=0;entryX=0.75;entryY=1;entryDx=0;entryDy=0;exitX=0.25;exitY=0;exitDx=0;exitDy=0;strokeColor=light-dark(#B46504,#FF4149);" edge="1" parent="1" source="Fn09qu7Amey5VSThe5sa-8" target="Fn09qu7Amey5VSThe5sa-1">
          <mxGeometry width="50" height="50" relative="1" as="geometry">
            <mxPoint x="360" y="380" as="sourcePoint" />
            <mxPoint x="410" y="330" as="targetPoint" />
          </mxGeometry>
        </mxCell>
        <mxCell id="Fn09qu7Amey5VSThe5sa-10" value="&lt;pre&gt;&lt;font style=&quot;font-size: 10px;&quot;&gt;etherPPPoE&lt;/font&gt;&lt;/pre&gt;" style="text;html=1;align=center;verticalAlign=middle;whiteSpace=wrap;rounded=0;" vertex="1" parent="1">
          <mxGeometry x="260" y="405" width="70" height="20" as="geometry" />
        </mxCell>
        <mxCell id="Fn09qu7Amey5VSThe5sa-11" value="&lt;pre&gt;&lt;font style=&quot;font-size: 10px;&quot;&gt;etherPPPoE&lt;/font&gt;&lt;/pre&gt;" style="text;html=1;align=center;verticalAlign=middle;whiteSpace=wrap;rounded=0;" vertex="1" parent="1">
          <mxGeometry x="472" y="405" width="70" height="20" as="geometry" />
        </mxCell>
        <mxCell id="Fn09qu7Amey5VSThe5sa-12" value="&lt;pre&gt;&lt;font style=&quot;font-size: 10px;&quot;&gt;HomeLan&lt;br&gt;DHCP Server&lt;/font&gt;&lt;/pre&gt;" style="text;html=1;align=center;verticalAlign=middle;whiteSpace=wrap;rounded=0;" vertex="1" parent="1">
          <mxGeometry x="240" y="455" width="50" height="20" as="geometry" />
        </mxCell>
        <mxCell id="Fn09qu7Amey5VSThe5sa-14" value="&lt;pre&gt;&lt;font style=&quot;font-size: 10px;&quot;&gt;100.64.0.1&lt;/font&gt;&lt;/pre&gt;" style="text;html=1;align=center;verticalAlign=middle;whiteSpace=wrap;rounded=0;" vertex="1" parent="1">
          <mxGeometry x="365" y="390" width="70" height="10" as="geometry" />
        </mxCell>
        <mxCell id="Fn09qu7Amey5VSThe5sa-15" value="" style="endArrow=openThin;html=1;rounded=0;exitX=0;exitY=0.5;exitDx=0;exitDy=0;strokeColor=light-dark(#FFFFFF,#FF862C);endFill=0;strokeWidth=2;" edge="1" parent="1" source="Fn09qu7Amey5VSThe5sa-2">
          <mxGeometry width="50" height="50" relative="1" as="geometry">
            <mxPoint x="350" y="290" as="sourcePoint" />
            <mxPoint x="240" y="220" as="targetPoint" />
          </mxGeometry>
        </mxCell>
        <mxCell id="Fn09qu7Amey5VSThe5sa-16" value="Internet access &amp;amp; DHCP provided by the rest of the lab" style="text;html=1;align=center;verticalAlign=middle;whiteSpace=wrap;rounded=0;" vertex="1" parent="1">
          <mxGeometry x="240" y="170" width="110" height="40" as="geometry" />
        </mxCell>
        <mxCell id="Fn09qu7Amey5VSThe5sa-17" value="&lt;pre&gt;&lt;font style=&quot;font-size: 10px;&quot;&gt;tagged vlan 40&lt;/font&gt;&lt;/pre&gt;" style="text;html=1;align=center;verticalAlign=middle;whiteSpace=wrap;rounded=0;" vertex="1" parent="1">
          <mxGeometry x="260" y="220" width="90" height="10" as="geometry" />
        </mxCell>
        <mxCell id="Fn09qu7Amey5VSThe5sa-18" value="&lt;div&gt;&lt;font style=&quot;font-size: 9px; color: light-dark(rgb(180, 101, 4), rgb(204, 0, 102));&quot;&gt;MgmtLXC&lt;/font&gt;&lt;/div&gt;&lt;div&gt;&lt;font style=&quot;font-size: 9px; color: light-dark(rgb(180, 101, 4), rgb(204, 0, 102));&quot;&gt;192.168.252.10&lt;/font&gt;&lt;/div&gt;" style="rounded=1;whiteSpace=wrap;html=1;strokeColor=light-dark(#B46504,#CC0066);fillColor=light-dark(#000000,#1A1A1A);" vertex="1" parent="1">
          <mxGeometry x="209" y="275" width="70" height="30" as="geometry" />
        </mxCell>
        <mxCell id="Fn09qu7Amey5VSThe5sa-19" value="" style="endArrow=none;html=1;rounded=0;exitX=1;exitY=0.5;exitDx=0;exitDy=0;entryX=0;entryY=0.5;entryDx=0;entryDy=0;strokeColor=light-dark(#B46504,#CC0066);" edge="1" parent="1" source="Fn09qu7Amey5VSThe5sa-18" target="Fn09qu7Amey5VSThe5sa-1">
          <mxGeometry width="50" height="50" relative="1" as="geometry">
            <mxPoint x="390" y="410" as="sourcePoint" />
            <mxPoint x="440" y="360" as="targetPoint" />
            <Array as="points">
              <mxPoint x="310" y="290" />
              <mxPoint x="310" y="360" />
            </Array>
          </mxGeometry>
        </mxCell>
        <mxCell id="Fn09qu7Amey5VSThe5sa-20" value="&lt;pre&gt;&lt;font style=&quot;font-size: 8px;&quot;&gt;192.168.252.9/30&lt;/font&gt;&lt;/pre&gt;" style="text;html=1;align=center;verticalAlign=middle;whiteSpace=wrap;rounded=0;" vertex="1" parent="1">
          <mxGeometry x="270" y="360" width="70" height="10" as="geometry" />
        </mxCell>
        <mxCell id="Fn09qu7Amey5VSThe5sa-22" value="&lt;span style=&quot;color: light-dark(rgb(0, 0, 0), rgb(255, 100, 58));&quot;&gt;HomeLXC&lt;/span&gt;" style="rounded=1;whiteSpace=wrap;html=1;strokeColor=light-dark(#000000,#FF643A);fillColor=light-dark(#000000,#1A1A1A);" vertex="1" parent="1">
          <mxGeometry x="290" y="490" width="80" height="20" as="geometry" />
        </mxCell>
        <mxCell id="Fn09qu7Amey5VSThe5sa-23" value="" style="endArrow=none;html=1;rounded=0;exitX=0.25;exitY=0;exitDx=0;exitDy=0;entryX=0.5;entryY=1;entryDx=0;entryDy=0;strokeColor=light-dark(#000000,#FF643A);" edge="1" parent="1" source="Fn09qu7Amey5VSThe5sa-22" target="Fn09qu7Amey5VSThe5sa-6">
          <mxGeometry width="50" height="50" relative="1" as="geometry">
            <mxPoint x="310" y="490" as="sourcePoint" />
            <mxPoint x="387" y="430" as="targetPoint" />
          </mxGeometry>
        </mxCell>
        <mxCell id="Fn09qu7Amey5VSThe5sa-24" value="&lt;span style=&quot;color: light-dark(rgb(180, 101, 4), rgb(255, 65, 73));&quot;&gt;HomeLXC&lt;/span&gt;" style="rounded=1;whiteSpace=wrap;html=1;strokeColor=light-dark(#B46504,#FF4149);fillColor=light-dark(#000000,#1A1A1A);" vertex="1" parent="1">
          <mxGeometry x="432" y="490" width="80" height="20" as="geometry" />
        </mxCell>
        <mxCell id="Fn09qu7Amey5VSThe5sa-25" value="" style="endArrow=none;html=1;rounded=0;exitX=0.5;exitY=0;exitDx=0;exitDy=0;entryX=0.5;entryY=1;entryDx=0;entryDy=0;strokeColor=light-dark(#B46504,#FF4149);" edge="1" parent="1" source="Fn09qu7Amey5VSThe5sa-24" target="Fn09qu7Amey5VSThe5sa-8">
          <mxGeometry width="50" height="50" relative="1" as="geometry">
            <mxPoint x="540" y="540" as="sourcePoint" />
            <mxPoint x="500" y="500" as="targetPoint" />
          </mxGeometry>
        </mxCell>
        <mxCell id="Fn09qu7Amey5VSThe5sa-26" value="&lt;pre&gt;&lt;font style=&quot;font-size: 10px;&quot;&gt;HomeLan2&lt;br&gt;DHCP Server&lt;/font&gt;&lt;/pre&gt;" style="text;html=1;align=center;verticalAlign=middle;whiteSpace=wrap;rounded=0;" vertex="1" parent="1">
          <mxGeometry x="512" y="455" width="50" height="20" as="geometry" />
        </mxCell>
        <mxCell id="Fn09qu7Amey5VSThe5sa-27" value="" style="endArrow=none;dashed=1;html=1;strokeWidth=2;rounded=0;entryX=1;entryY=0.75;entryDx=0;entryDy=0;exitX=1;exitY=0.5;exitDx=0;exitDy=0;strokeColor=light-dark(#B46504,#CC0066);" edge="1" parent="1" source="Fn09qu7Amey5VSThe5sa-6" target="Fn09qu7Amey5VSThe5sa-18">
          <mxGeometry width="50" height="50" relative="1" as="geometry">
            <mxPoint x="380" y="410" as="sourcePoint" />
            <mxPoint x="430" y="360" as="targetPoint" />
            <Array as="points">
              <mxPoint x="360" y="440" />
              <mxPoint x="360" y="380" />
              <mxPoint x="360" y="350" />
              <mxPoint x="320" y="350" />
              <mxPoint x="320" y="298" />
            </Array>
          </mxGeometry>
        </mxCell>
        <mxCell id="Fn09qu7Amey5VSThe5sa-28" value="" style="endArrow=none;dashed=1;html=1;strokeWidth=2;rounded=0;exitX=0;exitY=0.5;exitDx=0;exitDy=0;strokeColor=light-dark(#B46504,#CC0066);" edge="1" parent="1" source="Fn09qu7Amey5VSThe5sa-8">
          <mxGeometry width="50" height="50" relative="1" as="geometry">
            <mxPoint x="380" y="410" as="sourcePoint" />
            <mxPoint x="360" y="350" as="targetPoint" />
            <Array as="points">
              <mxPoint x="440" y="440" />
              <mxPoint x="440" y="350" />
            </Array>
          </mxGeometry>
        </mxCell>
        <mxCell id="Fn09qu7Amey5VSThe5sa-29" value="&lt;div&gt;&lt;font style=&quot;font-size: 10px;&quot;&gt;Management&lt;/font&gt;&lt;/div&gt;&lt;div&gt;&lt;font style=&quot;font-size: 10px;&quot;&gt;Access&lt;/font&gt;&lt;/div&gt;" style="text;html=1;align=center;verticalAlign=middle;whiteSpace=wrap;rounded=0;" vertex="1" parent="1">
          <mxGeometry x="477" y="360" width="60" height="30" as="geometry" />
        </mxCell>
        <mxCell id="Fn09qu7Amey5VSThe5sa-30" value="" style="endArrow=openThin;html=1;rounded=1;exitX=0;exitY=1;exitDx=0;exitDy=0;endFill=0;strokeWidth=2;strokeColor=light-dark(#FFFFFF,#FF862C);curved=0;" edge="1" parent="1" source="Fn09qu7Amey5VSThe5sa-29">
          <mxGeometry width="50" height="50" relative="1" as="geometry">
            <mxPoint x="380" y="410" as="sourcePoint" />
            <mxPoint x="360" y="420" as="targetPoint" />
          </mxGeometry>
        </mxCell>
        <mxCell id="Fn09qu7Amey5VSThe5sa-31" value="" style="endArrow=openThin;html=1;rounded=1;exitX=0.14;exitY=0.947;exitDx=0;exitDy=0;exitPerimeter=0;endFill=0;strokeWidth=2;strokeColor=light-dark(#FFFFFF,#FF862C);curved=0;" edge="1" parent="1" source="Fn09qu7Amey5VSThe5sa-29">
          <mxGeometry width="50" height="50" relative="1" as="geometry">
            <mxPoint x="380" y="410" as="sourcePoint" />
            <mxPoint x="440" y="420" as="targetPoint" />
          </mxGeometry>
        </mxCell>
      </root>
    </mxGraphModel>
  </diagram>
</mxfile>
